# xmcd CD database file
#
# Track frame offsets:
#	150
#	26288
#	66737
#	83991
#	113548
#	132371
#	145222
#	184702
#
# Disc length: 2744 seconds
#
# Revision: 0
# Processed by: cddbd v1.5.2PL0 Copyright (c) Steve Scherf et al.
# Submitted via: CDex 1.70beta2
#
DISCID=6c0ab608
DTITLE=JJ CALE - JJ CALE - Old Town Bar and Grill, Eureka, CA [CD2]
DYEAR=1983
DGENRE=Blues
TTITLE0=Deep Dark Dungeon
TTITLE1=Crazy Mama
TTITLE2=Reality
TTITLE3=Call Me The Breeze
TTITLE4=Clyde
TTITLE5=Magnolia
TTITLE6=Cocaine
TTITLE7=Ride Me High
EXTD=YEAR: 1983
EXTT0=
EXTT1=
EXTT2=
EXTT3=
EXTT4=
EXTT5=
EXTT6=
EXTT7=
PLAYORDER=
